<?xml version="1.0" encoding="utf-8"?>
<!-- Generator: Adobe Illustrator 15.0.0, SVG Export Plug-In . SVG Version: 6.00 Build 0)  -->
<!DOCTYPE svg PUBLIC "-//W3C//DTD SVG 1.1//EN" "http://www.w3.org/Graphics/SVG/1.1/DTD/svg11.dtd">
<svg version="1.1" id="Lager_1" xmlns="http://www.w3.org/2000/svg" xmlns:xlink="http://www.w3.org/1999/xlink" x="0px" y="0px"
	 width="70px" viewBox="0 0 283.46 283.46" enable-background="new 0 0 283.46 283.46" xml:space="preserve">
<g>
	<path fill="#2B5DA9" d="M283.271,263.97c0,8.893-7.21,16.103-16.104,16.103H20.679c-8.893,0-16.102-7.21-16.102-16.103V17.48
		c0-8.893,7.209-16.102,16.102-16.102h246.49c8.893,0,16.103,7.209,16.103,16.102L283.271,263.97L283.271,263.97z"/>
	<g enable-background="new    ">
		<path fill="#FFFFFF" d="M97.511,68.15c0,9.195-6.787,16.639-17.953,16.639c-10.509,0-17.296-7.443-17.296-16.639
			c0-9.414,7.006-16.639,17.734-16.639C90.724,51.511,97.292,58.736,97.511,68.15z M63.138,204.983V97.924h33.278v107.059H63.138z"
			/>
		<path fill="#FFFFFF" d="M123.124,132.079c0-13.355-0.438-24.521-0.876-34.154h28.899l1.532,14.888h0.657
			c4.378-7.006,15.106-17.296,33.059-17.296c21.894,0,38.313,14.669,38.313,46.195v63.271h-33.277v-59.331
			c0-13.793-4.816-23.207-16.858-23.207c-9.195,0-14.669,6.35-17.077,12.479c-0.875,2.189-1.094,5.254-1.094,8.319v61.739h-33.278
			V132.079z"/>
	</g>
</g>
</svg>
