<?xml version="1.0" encoding="utf-8"?>
<!-- Generator: Adobe Illustrator 15.0.0, SVG Export Plug-In . SVG Version: 6.00 Build 0)  -->
<!DOCTYPE svg PUBLIC "-//W3C//DTD SVG 1.1//EN" "http://www.w3.org/Graphics/SVG/1.1/DTD/svg11.dtd">
<svg version="1.1" id="Lager_1" xmlns="http://www.w3.org/2000/svg" xmlns:xlink="http://www.w3.org/1999/xlink" x="0px" y="0px"
	 width="100px" height="100ox" viewBox="104.767 100.267 283.465 283.465"
	 enable-background="new 104.767 100.267 283.465 283.465" xml:space="preserve">
<g id="Lager_2" display="none">
	<rect x="0" y="0" display="inline" fill="#083284" width="493" height="484"/>
</g>
<circle fill="#fff" cx="250.05" cy="252.193" r="2.49"/>
<circle fill="#fff" cx="250.05" cy="261.789" r="2.491"/>
<circle fill="#fff" cx="250.05" cy="272.402" r="2.491"/>
<polygon fill="#fff" points="255.518,190.127 245.04,190.127 247.79,163.926 252.638,163.926 "/>
<g>
	<path fill="#fff" d="M257.091,189.043c0,0-1.614,1.614-3.586,3.585c-1.975,1.975-5.202,1.975-7.173,0
		c-1.974-1.972-3.588-3.585-3.588-3.585"/>
</g>
<path fill="#fff" d="M275.86,131.531c0,14.327-11.614,25.94-25.941,25.94c-14.323,0-25.939-11.614-25.939-25.94
	c0-14.323,11.977-30.263,26.302-30.263C264.605,101.268,275.86,117.205,275.86,131.531z"/>
<path fill="#fff" d="M277.299,161.895c-0.047,0-0.092-0.003-0.137-0.003c-0.046,0-0.091,0.003-0.135,0.003h-5.775l-0.158,0.6
	l-13.983,53.168c-2.628-2.278-4.863-4.997-6.593-8.041c-1.791,3.153-4.125,5.958-6.878,8.287l-14.231-53.51l-0.135-0.505h-5.265
	c-0.045,0-0.09-0.003-0.135-0.003c-0.047,0-0.092,0.003-0.136,0.003c-14.354,0.062-26.37,9.998-29.621,23.366v14.52v78.451h21.824
	v-56.125v-35.452l9.163,36.464l13.85,55.113h22.616l13.902-55.13l9.19-36.447v35.567v56.01h21.825v-76.857v-17.708
	C302.701,171.11,291.074,161.955,277.299,161.895z"/>
<path fill="#fff" d="M325.631,282.485H168.868c-4.853,2.208-8.234,7.084-8.234,12.764c0,6.55,4.49,12.034,10.554,13.587v0.158
	h0.617c0.926,0.192,1.885,0.295,2.868,0.295c0.983,0,1.942-0.103,2.868-0.295h43.19l15.991,10.325l-65.535,30.073v32.064
	l87.154-42.394l64.637,40.398v-34.059l-50.444-27.534c-5.406-2.901-10.811-5.8-16.666-8.518v-0.362h67.113v-0.342
	c6.627-0.874,11.75-6.531,11.75-13.398C334.732,289.331,330.925,284.319,325.631,282.485z"/>
<path fill="#fff" d="M171.188,349.392c0,0-13.562,21.021,0,32.064"/>
<path fill="#fff" d="M322.979,345.403c0,0,11.646,17.688,0,34.059"/>
</svg>
