<?xml version="1.0" encoding="utf-8"?>
<!-- Generator: Adobe Illustrator 15.0.0, SVG Export Plug-In . SVG Version: 6.00 Build 0)  -->
<!DOCTYPE svg PUBLIC "-//W3C//DTD SVG 1.1//EN" "http://www.w3.org/Graphics/SVG/1.1/DTD/svg11.dtd">
<svg version="1.1" id="Lager_1" xmlns="http://www.w3.org/2000/svg" xmlns:xlink="http://www.w3.org/1999/xlink" x="0px" y="0px"
	 width="100px" height="100px" viewBox="90.23 0 193.23 283.46" enable-background="new 90.23 0 193.23 283.46"
	 xml:space="preserve">
<g id="Lager_2">
</g>
<g>
	<g>
		<path fill="#fff" d="M280.943,97.417c0,7.723-6.257,13.984-13.979,13.984h-37.294c-7.725,0-13.983-6.261-13.983-13.984v-9.324
			c0-7.722,6.261-13.984,13.983-13.984h37.294c7.723,0,13.979,6.262,13.979,13.984V97.417L280.943,97.417z"/>
		<path fill="#fff" d="M209.471,66.732c0,4.505-3.652,8.157-8.158,8.157H179.56c-4.505,0-8.156-3.652-8.156-8.157v-5.439
			c0-4.505,3.651-8.156,8.156-8.156h21.755c4.505,0,8.158,3.651,8.158,8.156v5.439H209.471z"/>
		<path fill="#fff" d="M159.749,34.102c0,3.217-2.608,5.826-5.825,5.826h-15.539c-3.218,0-5.828-2.61-5.828-5.826v-3.884
			c0-3.219,2.609-5.827,5.828-5.827h15.539c3.217,0,5.825,2.607,5.825,5.827V34.102z"/>
		<path fill="#fff" d="M116.632,9.433c0,2.253-1.826,4.079-4.079,4.079h-10.876c-2.252,0-4.079-1.826-4.079-4.079V6.715
			c0-2.252,1.826-4.079,4.079-4.079h10.876c2.252,0,4.079,1.827,4.079,4.079V9.433z"/>
	</g>
	<g>
		<path fill="#fff" d="M280.943,182.706c0,7.722-6.257,13.981-13.979,13.981h-37.294c-7.725,0-13.983-6.26-13.983-13.981v-9.325
			c0-7.722,6.261-13.982,13.983-13.982h37.294c7.723,0,13.979,6.261,13.979,13.982V182.706L280.943,182.706z"/>
		<path fill="#fff" d="M209.471,152.017c0,4.506-3.652,8.16-8.158,8.16H179.56c-4.505,0-8.156-3.653-8.156-8.16v-5.438
			c0-4.504,3.651-8.157,8.156-8.157h21.755c4.505,0,8.158,3.652,8.158,8.157v5.438H209.471z"/>
		<path fill="#fff" d="M159.749,119.387c0,3.22-2.608,5.826-5.825,5.826h-15.539c-3.218,0-5.828-2.608-5.828-5.826v-3.883
			c0-3.22,2.609-5.828,5.828-5.828h15.539c3.217,0,5.825,2.608,5.825,5.828V119.387z"/>
		<path fill="#fff" d="M116.632,94.721c0,2.252-1.826,4.078-4.079,4.078h-10.876c-2.252,0-4.079-1.826-4.079-4.078v-2.719
			c0-2.253,1.826-4.076,4.079-4.076h10.876c2.252,0,4.079,1.823,4.079,4.076V94.721z"/>
	</g>
	<g>
		<path fill="#fff" d="M280.943,268.222c0,7.722-6.257,13.982-13.979,13.982h-37.294c-7.725,0-13.983-6.261-13.983-13.982v-9.323
			c0-7.726,6.261-13.986,13.983-13.986h37.294c7.723,0,13.979,6.261,13.979,13.986V268.222L280.943,268.222z"/>
		<path fill="#fff" d="M209.471,237.533c0,4.506-3.652,8.16-8.158,8.16H179.56c-4.505,0-8.156-3.653-8.156-8.16v-5.436
			c0-4.504,3.651-8.162,8.156-8.162h21.755c4.505,0,8.158,3.658,8.158,8.162v5.436H209.471z"/>
		<path fill="#fff" d="M159.749,204.905c0,3.22-2.608,5.825-5.825,5.825h-15.539c-3.218,0-5.828-2.605-5.828-5.825v-3.884
			c0-3.22,2.609-5.827,5.828-5.827h15.539c3.217,0,5.825,2.607,5.825,5.827V204.905z"/>
		<path fill="#fff" d="M116.632,180.239c0,2.251-1.826,4.076-4.079,4.076h-10.876c-2.252,0-4.079-1.825-4.079-4.076v-2.72
			c0-2.253,1.826-4.08,4.079-4.08h10.876c2.252,0,4.079,1.827,4.079,4.08V180.239z"/>
	</g>
</g>
</svg>
