<?xml version="1.0" encoding="utf-8"?>
<!-- Generator: Adobe Illustrator 15.0.0, SVG Export Plug-In . SVG Version: 6.00 Build 0)  -->
<!DOCTYPE svg PUBLIC "-//W3C//DTD SVG 1.1//EN" "http://www.w3.org/Graphics/SVG/1.1/DTD/svg11.dtd">
<svg version="1.1" id="Lager_1" xmlns="http://www.w3.org/2000/svg" xmlns:xlink="http://www.w3.org/1999/xlink" x="0px" y="0px"
	 width="150px" viewBox="0 0 246.667 54" enable-background="new 0 0 246.667 54" xml:space="preserve">
<path fill="#fff" d="M205.416,44.957c-0.689,0.119-1.722,0.248-2.24-0.132c-0.211-0.156-0.203-0.427-0.396-0.593
	c-0.493,0.158-0.927-0.151-1.187-0.43c0-0.359,0.169-0.557,0.197-0.889c-0.231,0.148-0.474,0.531-0.494,0.791
	c-0.026,0.37,0.304,0.574,0.494,0.921c0.227,0.405,0.265,0.834,0.362,1.22c-0.84-0.011-1.829,0.158-2.339-0.264
	c-0.127-0.105-0.113-0.264-0.197-0.361c-0.115-0.14-0.306-0.123-0.361-0.297c0.002-0.261-0.03-0.558,0.099-0.691
	c-0.106-0.508-0.146-1.084-0.396-1.451c-0.394-4.129-0.168-8.783-0.1-13.109c-0.152,0.079-0.21,0.325-0.461,0.396
	c-0.467,0.133-1.184-0.125-1.482-0.332c0.108-1.553,0.178-3.116,0.265-4.511c0.021-0.316,0.184-0.706,0.132-1.021
	c-0.033-0.2-0.428-0.599-0.594-0.824c-0.454-0.621-0.733-1.032-1.151-1.68c-0.308-0.472-0.621-0.85-0.526-1.613
	c0.117-0.963,0.819-1.368,1.151-2.241c0.36-0.231,0.589-0.597,0.726-1.054c0.164-0.153,0.379-0.258,0.494-0.461
	c0.115-0.51,0.09-0.966,0.396-1.252c0.257-0.241,0.952-0.29,1.481-0.395c0.826-0.166,1.545-0.217,2.01-0.626
	c-0.016-0.236-0.094-0.411-0.1-0.659c-0.322-0.205-0.281-0.771-0.328-1.252c-0.043-0.13,0.096-0.08,0.099-0.165
	c-0.486-1.633,1.042-2.634,2.339-1.878c0.381,0.322,0.376,1.031,0.428,1.681c0.045,0.048,0.188-0.151,0.264,0
	c0.045,0.498,0.041,1.194-0.395,1.317c-0.055,0.515-0.043,0.96,0.131,1.317c0.385,0.322,0.93,0.423,1.482,0.56
	c0.502,0.125,1.16,0.227,1.449,0.594c0.215,0.271,0.309,0.964,0.429,1.449c0.06,0.242,0.218,0.338,0.132,0.626
	c0.374,0.513,0.494,1.198,0.824,1.746c0.086,0.144,0.299,0.265,0.361,0.428c0.119,0.309-0.021,0.635,0.164,0.922
	c-0.248,2.014-1.31,3.215-2.009,4.776c-0.08,0.015,0.019-0.15-0.101-0.098c-0.145,0.311-0.047,0.784-0.032,1.284
	c0.024,0.837-0.009,1.665,0.032,2.503c0.007,0.102,0.057,0.271,0.033,0.361c-0.082,0.341-0.674,0.563-1.086,0.627
	c-0.143,1.767-0.578,3.496-0.66,5.369c-0.09,2.039-0.392,4.08-0.592,6.063c-0.016,0.167,0.236,0.068,0.197,0.264
	c-0.023,0.174-0.234,0.16-0.33,0.264c0.079,0.375,0.059,0.816,0.23,1.021c0.018,0.221,0.068,0.475,0.197,0.625
	c0.184,0.213,0.588,0.262,0.758,0.527C205.332,44.507,205.343,44.704,205.416,44.957z M197.412,20.581
	c0.135,0.293,0.45,0.545,0.396,0.922c0.251-0.264,0.106-1.062,0.032-1.415C197.634,20.19,197.52,20.385,197.412,20.581z
	 M206.207,21.866c0.062-0.269,0.188-0.471,0.297-0.692c-0.017-0.179-0.213-0.214-0.265-0.429c-0.047-0.194,0.089-0.456-0.065-0.625
	C206.166,20.791,206.107,21.291,206.207,21.866z M201.1,38.039c0.36,0.794,0.478,1.829,0.594,2.865
	c0.257-0.248,0.326-0.684,0.46-1.053c-0.105-2.02-0.208-3.97-0.197-5.931C201.824,35.445,201.096,36.378,201.1,38.039z"/>
<path fill="#B5B5B5" d="M1.919,11.733c2.074-0.346,4.791-0.642,8.249-0.642c4.248,0,7.359,0.988,9.335,2.766
	c1.778,1.581,2.914,4,2.914,6.964c0,3.013-0.889,5.384-2.568,7.113c-2.322,2.42-5.977,3.654-10.175,3.654
	c-1.284,0-2.469-0.049-3.458-0.296v13.336H1.919V11.733z M6.216,27.786c0.938,0.247,2.124,0.346,3.557,0.346
	c5.186,0,8.347-2.568,8.347-7.063c0-4.445-3.161-6.569-7.854-6.569c-1.877,0-3.309,0.148-4.05,0.346V27.786z"/>
<path fill="#B5B5B5" d="M56.645,27.639c0,11.409-6.964,17.534-15.46,17.534c-8.841,0-14.966-6.866-14.966-16.942
	c0-10.569,6.52-17.484,15.41-17.484C50.767,10.746,56.645,17.71,56.645,27.639z M30.763,28.132c0,7.162,3.853,13.534,10.669,13.534
	S52.1,35.393,52.1,27.836c0-6.668-3.457-13.583-10.619-13.583S30.763,20.871,30.763,28.132z"/>
<path fill="#B5B5B5" d="M62.224,11.783c2.173-0.395,5.334-0.691,8.249-0.691c4.594,0,7.606,0.889,9.631,2.716
	c1.63,1.482,2.618,3.754,2.618,6.372c0,4.346-2.766,7.261-6.224,8.446v0.147c2.519,0.89,4.05,3.261,4.84,6.718
	c1.087,4.644,1.877,7.854,2.568,9.138h-4.445c-0.543-0.988-1.284-3.803-2.173-7.951c-0.988-4.595-2.815-6.322-6.718-6.472h-4.05
	v14.423h-4.297L62.224,11.783L62.224,11.783z M66.521,26.946h4.396c4.594,0,7.508-2.519,7.508-6.322
	c0-4.297-3.112-6.174-7.656-6.174c-2.075,0-3.507,0.148-4.248,0.346V26.946z"/>
<path fill="#B5B5B5" d="M95.561,14.993H85.436v-3.655h24.647v3.655H99.908v29.636h-4.347V14.993z"/>
<path fill="#fff" d="M113.736,11.338h17.93v3.605h-13.583v11.064h12.545v3.556h-12.545v15.065h-4.346L113.736,11.338
	L113.736,11.338z"/>
<path fill="#fff" d="M166.289,27.639c0,11.409-6.965,17.534-15.461,17.534c-8.841,0-14.966-6.866-14.966-16.942
	c0-10.569,6.521-17.484,15.41-17.484C160.41,10.746,166.289,17.71,166.289,27.639z M140.406,28.132
	c0,7.162,3.854,13.534,10.67,13.534c6.815,0,10.668-6.273,10.668-13.83c0-6.668-3.457-13.583-10.619-13.583
	C143.962,14.252,140.406,20.871,140.406,28.132z"/>
<path fill="#fff" d="M171.817,11.338h4.347v29.686h14.227v3.604h-18.572L171.817,11.338L171.817,11.338z"/>
<path fill="#fff" d="M244.432,27.639c0,11.409-6.966,17.534-15.46,17.534c-8.842,0-14.967-6.866-14.967-16.942
	c0-10.569,6.521-17.484,15.41-17.484C238.554,10.746,244.432,17.71,244.432,27.639z M218.55,28.132
	c0,7.162,3.853,13.534,10.669,13.534c6.815,0,10.669-6.273,10.669-13.83c0-6.668-3.458-13.583-10.62-13.583
	C222.107,14.252,218.55,20.871,218.55,28.132z"/>
</svg>
