<?xml version="1.0" encoding="utf-8"?>
<!-- Generator: Adobe Illustrator 15.0.0, SVG Export Plug-In . SVG Version: 6.00 Build 0)  -->
<!DOCTYPE svg PUBLIC "-//W3C//DTD SVG 1.1//EN" "http://www.w3.org/Graphics/SVG/1.1/DTD/svg11.dtd">
<svg version="1.1" id="Lager_1" xmlns="http://www.w3.org/2000/svg" xmlns:xlink="http://www.w3.org/1999/xlink" x="0px" y="0px"
	 width="283.46px" height="283.46px" viewBox="0 0 283.46 283.46" enable-background="new 0 0 283.46 283.46" xml:space="preserve">
<g id="Lager_1_1_">
</g>
<path fill="#EDEDED" d="M160.178,269.851c-68.087,0-123.283-55.195-123.283-123.283c0-1.71,0.044-3.409,0.113-5.103
	c-0.073-1.561-0.114-3.13-0.114-4.709c0-28.361,11.933-53.933,31.049-71.977c22.584-25.45,55.534-41.494,92.235-41.494
	c67.16,0,121.772,53.704,123.247,120.51c0.018-0.923,0.035-1.846,0.035-2.773c0-78.218-63.408-141.627-141.626-141.627
	S0.207,62.804,0.207,141.022c0,78.218,63.409,141.627,141.627,141.627c50.306,0,94.482-26.231,119.607-65.76
	C239.172,248.896,202.125,269.851,160.178,269.851z"/>
<path fill="#CAC7C7" d="M283.425,143.795c-0.517,26.861-8.507,51.89-21.984,73.094c13.877-19.946,22.02-44.181,22.02-70.321
	C283.46,145.641,283.446,144.717,283.425,143.795z"/>
<path fill="#CAC7C7" d="M160.178,23.285c-36.702,0-69.651,16.043-92.235,41.494c17.724-16.731,41.622-26.991,67.919-26.991
	c54.659,0,98.968,44.31,98.968,98.968c0,54.659-44.309,98.968-98.968,98.968c-53.079,0-96.395-41.787-98.854-94.259
	c-0.069,1.693-0.113,3.393-0.113,5.103c0,68.088,55.196,123.283,123.283,123.283c41.947,0,78.994-20.955,101.263-52.962
	c13.478-21.204,21.468-46.232,21.984-73.094C281.951,76.989,227.338,23.285,160.178,23.285z"/>
<path fill="#9E9E9E" d="M36.894,136.756c0,1.579,0.041,3.148,0.114,4.709c1.197-29.382,12.674-56.109,30.935-76.687
	C48.827,82.823,36.894,108.395,36.894,136.756z"/>
<path fill="#9E9E9E" d="M135.862,235.724c54.659,0,98.968-44.31,98.968-98.968c0-54.658-44.309-98.968-98.968-98.968
	c-26.297,0-50.195,10.26-67.919,26.991c-18.261,20.577-29.738,47.305-30.935,76.687C39.467,193.937,82.783,235.724,135.862,235.724z
	 M113.44,54.424c39.993,0,72.413,32.42,72.413,72.413s-32.42,72.413-72.413,72.413c-39.993,0-72.413-32.42-72.413-72.413
	S73.447,54.424,113.44,54.424z"/>
</svg>
