<?xml version="1.0" encoding="utf-8"?>
<!-- Generator: Adobe Illustrator 15.0.0, SVG Export Plug-In . SVG Version: 6.00 Build 0)  -->
<!DOCTYPE svg PUBLIC "-//W3C//DTD SVG 1.1//EN" "http://www.w3.org/Graphics/SVG/1.1/DTD/svg11.dtd">
<svg version="1.1" id="Lager_1" xmlns="http://www.w3.org/2000/svg" xmlns:xlink="http://www.w3.org/1999/xlink" x="0px" y="0px"
	 width="150px" viewBox="0 0 283.46 283.46" enable-background="new 0 0 283.46 283.46" xml:space="preserve">
<g>
	<path fill="#fff" d="M151.727,144.724c19.052,38.354,3.913,53.871-17.097,63.587c-21.011,9.719-44.448,3.048-58.988-28.396
		c-14.543-31.442-16.06-78.713,4.95-88.432C101.603,81.766,136.318,113.699,151.727,144.724z"/>
	<path fill="#fff" d="M184.963,215.162c7.856,16.988,9.7,55.78-12.653,66.121c-22.351,10.335-49.851-18.559-57.708-35.543
		c-7.856-16.988,8.113-11.611,30.463-21.951C167.417,213.452,177.106,198.174,184.963,215.162z"/>
	<path fill="#fff" d="M280.184,89.207c-9.817,41.683-31.378,43.965-53.752,38.032c-22.378-5.93-36.156-26.028-27.279-59.512
		c8.876-33.485,37.884-70.842,60.261-64.91C281.788,8.748,288.126,55.487,280.184,89.207z"/>
	<path fill="#fff" d="M260.802,164.643c-4.795,18.092-28.14,49.129-51.945,42.816c-23.805-6.309-26.529-46.104-21.732-64.194
		c4.796-18.092,13.655-3.761,37.458,2.55C248.389,152.124,265.599,146.549,260.802,164.643z"/>
</g>
</svg>
